<?xml version="1.0" standalone="yes"?>

<svg version="1.1" viewBox="0.0 0.0 500.0 400.0" fill="none" stroke="none" stroke-linecap="square" stroke-miterlimit="10" xmlns="http://www.w3.org/2000/svg" xmlns:xlink="http://www.w3.org/1999/xlink"><clipPath id="p.0"><path d="m0 0l500.0 0l0 400.0l-500.0 0l0 -400.0z" clip-rule="nonzero"></path></clipPath><g clip-path="url(#p.0)"><path fill="#000000" fill-opacity="0.0" d="m0 0l500.0 0l0 400.0l-500.0 0z" fill-rule="nonzero"></path><path fill="#cfe2f3" d="m14.9139 239.34547l0 0c0 -3.6674805 2.9730778 -6.6405487 6.6405525 -6.6405487l99.72677 0c1.7611847 0 3.4502335 0.69963074 4.6955795 1.9449768c1.2453461 1.2453308 1.9449768 2.9343872 1.9449768 4.695572l0 26.561417c0 3.6674805 -2.9730759 6.640564 -6.6405563 6.640564l-99.72677 0c-3.6674747 0 -6.6405525 -2.9730835 -6.6405525 -6.640564z" fill-rule="nonzero"></path><path stroke="#000000" stroke-width="1.0" stroke-linejoin="round" stroke-linecap="butt" d="m14.9139 239.34547l0 0c0 -3.6674805 2.9730778 -6.6405487 6.6405525 -6.6405487l99.72677 0c1.7611847 0 3.4502335 0.69963074 4.6955795 1.9449768c1.2453461 1.2453308 1.9449768 2.9343872 1.9449768 4.695572l0 26.561417c0 3.6674805 -2.9730759 6.640564 -6.6405563 6.640564l-99.72677 0c-3.6674747 0 -6.6405525 -2.9730835 -6.6405525 -6.640564z" fill-rule="nonzero"></path><path fill="#000000" d="m56.558685 259.54617l-5.28125 -13.593735l1.953125 0l3.53125 9.875q0.4375 1.1874847 0.71875 2.2187347q0.3125 -1.109375 0.734375 -2.2187347l3.671875 -9.875l1.84375 0l-5.328125 13.593735l-1.84375 0zm8.349823 -11.687485l0 -1.90625l1.671875 0l0 1.90625l-1.671875 0zm0 11.687485l0 -9.85936l1.671875 0l0 9.85936l-1.671875 0zm10.879196 -3.171875l1.71875 0.21875q-0.40625 1.5 -1.515625 2.34375q-1.09375 0.828125 -2.8125 0.828125q-2.15625 0 -3.421875 -1.328125q-1.265625 -1.328125 -1.265625 -3.7343597q0 -2.484375 1.265625 -3.859375q1.28125 -1.375 3.328125 -1.375q1.984375 0 3.234375 1.34375q1.25 1.34375 1.25 3.796875q0 0.140625 -0.015625 0.4375l-7.34375 0q0.09375 1.6249847 0.921875 2.4843597q0.828125 0.859375 2.0625 0.859375q0.90625 0 1.546875 -0.46875q0.65625 -0.484375 1.046875 -1.546875zm-5.484375 -2.7031097l5.5 0q-0.109375 -1.234375 -0.625 -1.859375q-0.796875 -0.96875 -2.078125 -0.96875q-1.140625 0 -1.9375 0.78125q-0.78125 0.765625 -0.859375 2.046875zm10.93821 5.8749847l-3.0156174 -9.85936l1.71875 0l1.5624924 5.6875l0.59375 2.1249847q0.03125 -0.15625 0.5 -2.0312347l1.578125 -5.78125l1.71875 0l1.46875 5.71875l0.484375 1.8906097l0.578125 -1.9062347l1.6875 -5.703125l1.625 0l-3.078125 9.85936l-1.734375 0l-1.578125 -5.9062347l-0.375 -1.671875l-2.0 7.5781097l-1.734375 0z" fill-rule="nonzero"></path><path fill="#cfe2f3" d="m193.49606 239.34547l0 0c0 -3.6674805 2.9730835 -6.6405487 6.6405487 -6.6405487l99.72676 0c1.7612 0 3.4502563 0.69963074 4.695587 1.9449768c1.2453613 1.2453308 1.9449768 2.9343872 1.9449768 4.695572l0 26.561417c0 3.6674805 -2.9730835 6.640564 -6.640564 6.640564l-99.72676 0c-3.6674652 0 -6.6405487 -2.9730835 -6.6405487 -6.640564z" fill-rule="nonzero"></path><path stroke="#000000" stroke-width="1.0" stroke-linejoin="round" stroke-linecap="butt" d="m193.49606 239.34547l0 0c0 -3.6674805 2.9730835 -6.6405487 6.6405487 -6.6405487l99.72676 0c1.7612 0 3.4502563 0.69963074 4.695587 1.9449768c1.2453613 1.2453308 1.9449768 2.9343872 1.9449768 4.695572l0 26.561417c0 3.6674805 -2.9730835 6.640564 -6.640564 6.640564l-99.72676 0c-3.6674652 0 -6.6405487 -2.9730835 -6.6405487 -6.640564z" fill-rule="nonzero"></path><path fill="#000000" d="m220.73482 254.78056l1.796875 0.453125q-0.5625 2.2187347 -2.03125 3.3906097q-1.46875 1.15625 -3.59375 1.15625q-2.203125 0 -3.578125 -0.890625q-1.375 -0.90625 -2.09375 -2.59375q-0.71875 -1.7031097 -0.71875 -3.6562347q0 -2.125 0.796875 -3.703125q0.8125 -1.578125 2.3125 -2.390625q1.5 -0.828125 3.296875 -0.828125q2.046875 0 3.4375 1.046875q1.390625 1.03125 1.9375 2.90625l-1.765625 0.421875q-0.46875 -1.484375 -1.375 -2.15625q-0.90625 -0.6875 -2.265625 -0.6875q-1.5625 0 -2.625 0.75q-1.046875 0.75 -1.484375 2.03125q-0.421875 1.265625 -0.421875 2.609375q0 1.734375 0.5 3.03125q0.515625 1.2812347 1.578125 1.9218597q1.078125 0.640625 2.3125 0.640625q1.515625 0 2.5625 -0.859375q1.046875 -0.875 1.421875 -2.5937347zm2.9260712 -0.15625q0 -2.734375 1.53125 -4.0625q1.265625 -1.09375 3.09375 -1.09375q2.03125 0 3.3125 1.34375q1.296875 1.328125 1.296875 3.671875q0 1.9062347 -0.578125 2.9999847q-0.5625 1.078125 -1.65625 1.6875q-1.078125 0.59375 -2.375 0.59375q-2.0625 0 -3.34375 -1.328125q-1.28125 -1.328125 -1.28125 -3.8124847zm1.71875 0q0 1.8906097 0.828125 2.8281097q0.828125 0.9375 2.078125 0.9375q1.25 0 2.0625 -0.9375q0.828125 -0.953125 0.828125 -2.8906097q0 -1.828125 -0.828125 -2.765625q-0.828125 -0.9375 -2.0625 -0.9375q-1.25 0 -2.078125 0.9375q-0.828125 0.9375 -0.828125 2.828125zm9.281967 4.9218597l0 -9.85936l1.5 0l0 1.40625q1.09375 -1.625 3.140625 -1.625q0.890625 0 1.640625 0.328125q0.75 0.3125 1.109375 0.84375q0.375 0.515625 0.53125 1.21875q0.09375 0.46875 0.09375 1.625l0 6.0624847l-1.671875 0l0 -5.9999847q0 -1.015625 -0.203125 -1.515625q-0.1875 -0.515625 -0.6875 -0.8125q-0.5 -0.296875 -1.171875 -0.296875q-1.0625 0 -1.84375 0.671875q-0.765625 0.671875 -0.765625 2.578125l0 5.3749847l-1.671875 0zm14.031967 -1.5l0.234375 1.484375q-0.703125 0.140625 -1.265625 0.140625q-0.90625 0 -1.40625 -0.28125q-0.5 -0.296875 -0.703125 -0.75q-0.203125 -0.46875 -0.203125 -1.984375l0 -5.6562347l-1.234375 0l0 -1.3125l1.234375 0l0 -2.4375l1.65625 -1.0l0 3.4375l1.6875 0l0 1.3125l-1.6875 0l0 5.7499847q0 0.71875 0.078125 0.921875q0.09375 0.203125 0.296875 0.328125q0.203125 0.125 0.578125 0.125q0.265625 0 0.734375 -0.078125zm1.5114288 1.5l0 -9.85936l1.5 0l0 1.5q0.578125 -1.046875 1.0625 -1.375q0.484375 -0.34375 1.078125 -0.34375q0.84375 0 1.71875 0.546875l-0.578125 1.546875q-0.609375 -0.359375 -1.234375 -0.359375q-0.546875 0 -0.984375 0.328125q-0.421875 0.328125 -0.609375 0.90625q-0.28125 0.890625 -0.28125 1.953125l0 5.1562347l-1.671875 0zm5.603302 -4.9218597q0 -2.734375 1.5312653 -4.0625q1.265625 -1.09375 3.09375 -1.09375q2.03125 0 3.3125 1.34375q1.296875 1.328125 1.296875 3.671875q0 1.9062347 -0.578125 2.9999847q-0.5625 1.078125 -1.65625 1.6875q-1.078125 0.59375 -2.375 0.59375q-2.0625 0 -3.34375 -1.328125q-1.2812653 -1.328125 -1.2812653 -3.8124847zm1.7187653 0q0 1.8906097 0.828125 2.8281097q0.828125 0.9375 2.078125 0.9375q1.25 0 2.0625 -0.9375q0.828125 -0.953125 0.828125 -2.8906097q0 -1.828125 -0.828125 -2.765625q-0.828125 -0.9375 -2.0625 -0.9375q-1.25 0 -2.078125 0.9375q-0.828125 0.9375 -0.828125 2.828125zm9.250702 4.9218597l0 -13.593735l1.671875 0l0 13.593735l-1.671875 0zm4.1448364 0l0 -13.593735l1.671875 0l0 13.593735l-1.671875 0zm10.926056 -3.171875l1.71875 0.21875q-0.40625 1.5 -1.515625 2.34375q-1.09375 0.828125 -2.8125 0.828125q-2.15625 0 -3.421875 -1.328125q-1.265625 -1.328125 -1.265625 -3.7343597q0 -2.484375 1.265625 -3.859375q1.28125 -1.375 3.328125 -1.375q1.984375 0 3.234375 1.34375q1.25 1.34375 1.25 3.796875q0 0.140625 -0.015625 0.4375l-7.34375 0q0.09375 1.6249847 0.921875 2.4843597q0.828125 0.859375 2.0625 0.859375q0.90625 0 1.546875 -0.46875q0.65625 -0.484375 1.046875 -1.546875zm-5.484375 -2.7031097l5.5 0q-0.109375 -1.234375 -0.625 -1.859375q-0.796875 -0.96875 -2.078125 -0.96875q-1.140625 0 -1.9375 0.78125q-0.78125 0.765625 -0.859375 2.046875zm9.094482 5.8749847l0 -9.85936l1.5 0l0 1.5q0.578125 -1.046875 1.0625 -1.375q0.484375 -0.34375 1.078125 -0.34375q0.84375 0 1.71875 0.546875l-0.578125 1.546875q-0.609375 -0.359375 -1.234375 -0.359375q-0.546875 0 -0.984375 0.328125q-0.421875 0.328125 -0.609375 0.90625q-0.28125 0.890625 -0.28125 1.953125l0 5.1562347l-1.671875 0z" fill-rule="nonzero"></path><path fill="#cfe2f3" d="m372.07822 239.34547l0 0c0 -3.6674805 2.9730835 -6.6405487 6.640564 -6.6405487l99.726776 0c1.7611694 0 3.4502258 0.69963074 4.6955566 1.9449768c1.2453613 1.2453308 1.9449768 2.9343872 1.9449768 4.695572l0 26.561417c0 3.6674805 -2.973053 6.640564 -6.6405334 6.640564l-99.726776 0c-3.6674805 0 -6.640564 -2.9730835 -6.640564 -6.640564z" fill-rule="nonzero"></path><path stroke="#000000" stroke-width="1.0" stroke-linejoin="round" stroke-linecap="butt" d="m372.07822 239.34547l0 0c0 -3.6674805 2.9730835 -6.6405487 6.640564 -6.6405487l99.726776 0c1.7611694 0 3.4502258 0.69963074 4.6955566 1.9449768c1.2453613 1.2453308 1.9449768 2.9343872 1.9449768 4.695572l0 26.561417c0 3.6674805 -2.973053 6.640564 -6.6405334 6.640564l-99.726776 0c-3.6674805 0 -6.640564 -2.9730835 -6.640564 -6.640564z" fill-rule="nonzero"></path><path fill="#000000" d="m402.08414 259.54617l0 -13.593735l6.03125 0q1.8125 0 2.75 0.359375q0.953125 0.359375 1.515625 1.296875q0.5625 0.921875 0.5625 2.046875q0 1.453125 -0.9375 2.453125q-0.921875 0.984375 -2.890625 1.25q0.71875 0.34375 1.09375 0.671875q0.78125 0.734375 1.484375 1.8125l2.375 3.7031097l-2.265625 0l-1.796875 -2.828125q-0.796875 -1.2187347 -1.3125 -1.8749847q-0.5 -0.65625 -0.90625 -0.90625q-0.40625 -0.265625 -0.8125 -0.359375q-0.3125 -0.078125 -1.015625 -0.078125l-2.078125 0l0 6.0468597l-1.796875 0zm1.796875 -7.5937347l3.859375 0q1.234375 0 1.921875 -0.25q0.703125 -0.265625 1.0625 -0.828125q0.375 -0.5625 0.375 -1.21875q0 -0.96875 -0.703125 -1.578125q-0.703125 -0.625 -2.21875 -0.625l-4.296875 0l0 4.5zm10.801056 2.671875q0 -2.734375 1.53125 -4.0625q1.265625 -1.09375 3.09375 -1.09375q2.03125 0 3.3125 1.34375q1.296875 1.328125 1.296875 3.671875q0 1.9062347 -0.578125 2.9999847q-0.5625 1.078125 -1.65625 1.6875q-1.078125 0.59375 -2.375 0.59375q-2.0625 0 -3.34375 -1.328125q-1.28125 -1.328125 -1.28125 -3.8124847zm1.71875 0q0 1.8906097 0.828125 2.8281097q0.828125 0.9375 2.078125 0.9375q1.25 0 2.0625 -0.9375q0.828125 -0.953125 0.828125 -2.8906097q0 -1.828125 -0.828125 -2.765625q-0.828125 -0.9375 -2.0625 -0.9375q-1.25 0 -2.078125 0.9375q-0.828125 0.9375 -0.828125 2.828125zm15.735107 4.9218597l0 -1.453125q-1.140625 1.671875 -3.125 1.671875q-0.859375 0 -1.625 -0.328125q-0.75 -0.34375 -1.125 -0.84375q-0.359375 -0.5 -0.515625 -1.234375q-0.09375 -0.5 -0.09375 -1.5624847l0 -6.109375l1.671875 0l0 5.46875q0 1.3124847 0.09375 1.7656097q0.15625 0.65625 0.671875 1.03125q0.515625 0.375 1.265625 0.375q0.75 0 1.40625 -0.375q0.65625 -0.390625 0.921875 -1.046875q0.28125 -0.671875 0.28125 -1.9374847l0 -5.28125l1.671875 0l0 9.85936l-1.5 0zm7.578827 -1.5l0.234375 1.484375q-0.703125 0.140625 -1.265625 0.140625q-0.90625 0 -1.40625 -0.28125q-0.5 -0.296875 -0.703125 -0.75q-0.203125 -0.46875 -0.203125 -1.984375l0 -5.6562347l-1.234375 0l0 -1.3125l1.234375 0l0 -2.4375l1.65625 -1.0l0 3.4375l1.6875 0l0 1.3125l-1.6875 0l0 5.7499847q0 0.71875 0.078125 0.921875q0.09375 0.203125 0.296875 0.328125q0.203125 0.125 0.578125 0.125q0.265625 0 0.734375 -0.078125zm8.277039 -1.671875l1.71875 0.21875q-0.40625 1.5 -1.515625 2.34375q-1.09375 0.828125 -2.8125 0.828125q-2.15625 0 -3.421875 -1.328125q-1.265625 -1.328125 -1.265625 -3.7343597q0 -2.484375 1.265625 -3.859375q1.28125 -1.375 3.328125 -1.375q1.984375 0 3.234375 1.34375q1.25 1.34375 1.25 3.796875q0 0.140625 -0.015625 0.4375l-7.34375 0q0.09375 1.6249847 0.921875 2.4843597q0.828125 0.859375 2.0625 0.859375q0.90625 0 1.546875 -0.46875q0.65625 -0.484375 1.046875 -1.546875zm-5.484375 -2.7031097l5.5 0q-0.109375 -1.234375 -0.625 -1.859375q-0.796875 -0.96875 -2.078125 -0.96875q-1.140625 0 -1.9375 0.78125q-0.78125 0.765625 -0.859375 2.046875zm9.094482 5.8749847l0 -9.85936l1.5 0l0 1.5q0.578125 -1.046875 1.0625 -1.375q0.484375 -0.34375 1.078125 -0.34375q0.84375 0 1.71875 0.546875l-0.578125 1.546875q-0.609375 -0.359375 -1.234375 -0.359375q-0.546875 0 -0.984375 0.328125q-0.421875 0.328125 -0.609375 0.90625q-0.28125 0.890625 -0.28125 1.953125l0 5.1562347l-1.671875 0z" fill-rule="nonzero"></path><path fill="#cfe2f3" d="m282.78714 143.43042l0 0c0 -3.6674805 2.9730835 -6.6405487 6.640564 -6.6405487l99.726776 0c1.7611694 0 3.4502258 0.69963074 4.6955566 1.9449768c1.2453613 1.2453461 1.9449768 2.9343872 1.9449768 4.695572l0 26.561417c0 3.6674805 -2.9730835 6.6405487 -6.6405334 6.6405487l-99.726776 0c-3.6674805 0 -6.640564 -2.9730682 -6.640564 -6.6405487z" fill-rule="nonzero"></path><path stroke="#000000" stroke-width="1.0" stroke-linejoin="round" stroke-linecap="butt" d="m282.78714 143.43042l0 0c0 -3.6674805 2.9730835 -6.6405487 6.640564 -6.6405487l99.726776 0c1.7611694 0 3.4502258 0.69963074 4.6955566 1.9449768c1.2453613 1.2453461 1.9449768 2.9343872 1.9449768 4.695572l0 26.561417c0 3.6674805 -2.9730835 6.6405487 -6.6405334 6.6405487l-99.726776 0c-3.6674805 0 -6.640564 -2.9730682 -6.640564 -6.6405487z" fill-rule="nonzero"></path><path fill="#000000" d="m306.47098 163.63113l0 -13.59375l5.109375 0q1.546875 0 2.484375 0.40625q0.953125 0.40625 1.484375 1.265625q0.53125 0.859375 0.53125 1.796875q0 0.875 -0.46875 1.65625q-0.46875 0.765625 -1.4375 1.234375q1.234375 0.359375 1.890625 1.234375q0.671875 0.875 0.671875 2.0625q0 0.953125 -0.40625 1.78125q-0.390625 0.8125 -0.984375 1.265625q-0.59375 0.4375 -1.5 0.671875q-0.890625 0.21875 -2.1875 0.21875l-5.1875 0zm1.796875 -7.890625l2.9375 0q1.203125 0 1.71875 -0.15625q0.6875 -0.203125 1.03125 -0.671875q0.359375 -0.46875 0.359375 -1.1875q0 -0.671875 -0.328125 -1.1875q-0.328125 -0.515625 -0.9375 -0.703125q-0.59375 -0.203125 -2.0625 -0.203125l-2.71875 0l0 4.109375zm0 6.28125l3.390625 0q0.875 0 1.21875 -0.0625q0.625 -0.109375 1.046875 -0.359375q0.421875 -0.265625 0.6875 -0.765625q0.265625 -0.5 0.265625 -1.140625q0 -0.765625 -0.390625 -1.328125q-0.390625 -0.5625 -1.078125 -0.78125q-0.6875 -0.234375 -1.984375 -0.234375l-3.15625 0l0 4.671875zm10.490448 1.609375l0 -9.859375l1.5 0l0 1.5q0.578125 -1.046875 1.0625 -1.375q0.484375 -0.34375 1.078125 -0.34375q0.84375 0 1.71875 0.546875l-0.578125 1.546875q-0.609375 -0.359375 -1.234375 -0.359375q-0.546875 0 -0.984375 0.328125q-0.421875 0.328125 -0.609375 0.90625q-0.28125 0.890625 -0.28125 1.953125l0 5.15625l-1.671875 0zm5.603302 -4.921875q0 -2.734375 1.53125 -4.0625q1.265625 -1.09375 3.09375 -1.09375q2.03125 0 3.3125 1.34375q1.296875 1.328125 1.296875 3.671875q0 1.90625 -0.578125 3.0q-0.5625 1.078125 -1.65625 1.6875q-1.078125 0.59375 -2.375 0.59375q-2.0625 0 -3.34375 -1.328125q-1.28125 -1.328125 -1.28125 -3.8125zm1.71875 0q0 1.890625 0.828125 2.828125q0.828125 0.9375 2.078125 0.9375q1.25 0 2.0625 -0.9375q0.828125 -0.953125 0.828125 -2.890625q0 -1.828125 -0.828125 -2.765625q-0.828125 -0.9375 -2.0625 -0.9375q-1.25 0 -2.078125 0.9375q-0.828125 0.9375 -0.828125 2.828125zm11.110107 4.921875l-3.015625 -9.859375l1.71875 0l1.5625 5.6875l0.59375 2.125q0.03125 -0.15625 0.5 -2.03125l1.578125 -5.78125l1.71875 0l1.46875 5.71875l0.484375 1.890625l0.578125 -1.90625l1.6875 -5.703125l1.625 0l-3.078125 9.859375l-1.734375 0l-1.578125 -5.90625l-0.375 -1.671875l-2.0 7.578125l-1.734375 0zm10.972931 -2.9375l1.65625 -0.265625q0.140625 1.0 0.765625 1.53125q0.640625 0.515625 1.78125 0.515625q1.15625 0 1.703125 -0.46875q0.5625 -0.46875 0.5625 -1.09375q0 -0.5625 -0.484375 -0.890625q-0.34375 -0.21875 -1.703125 -0.5625q-1.84375 -0.46875 -2.5625 -0.796875q-0.703125 -0.34375 -1.078125 -0.9375q-0.359375 -0.609375 -0.359375 -1.328125q0 -0.65625 0.296875 -1.21875q0.3125 -0.5625 0.828125 -0.9375q0.390625 -0.28125 1.0625 -0.484375q0.671875 -0.203125 1.4375 -0.203125q1.171875 0 2.046875 0.34375q0.875 0.328125 1.28125 0.90625q0.421875 0.5625 0.578125 1.515625l-1.625 0.21875q-0.109375 -0.75 -0.65625 -1.171875q-0.53125 -0.4375 -1.5 -0.4375q-1.15625 0 -1.640625 0.390625q-0.484375 0.375 -0.484375 0.875q0 0.328125 0.203125 0.59375q0.203125 0.265625 0.640625 0.4375q0.25 0.09375 1.46875 0.4375q1.765625 0.46875 2.46875 0.765625q0.703125 0.296875 1.09375 0.875q0.40625 0.578125 0.40625 1.4375q0 0.828125 -0.484375 1.578125q-0.484375 0.734375 -1.40625 1.140625q-0.921875 0.390625 -2.078125 0.390625q-1.921875 0 -2.9375 -0.796875q-1.0 -0.796875 -1.28125 -2.359375zm16.75 -0.234375l1.71875 0.21875q-0.40625 1.5 -1.515625 2.34375q-1.09375 0.828125 -2.8125 0.828125q-2.15625 0 -3.421875 -1.328125q-1.265625 -1.328125 -1.265625 -3.734375q0 -2.484375 1.265625 -3.859375q1.28125 -1.375 3.328125 -1.375q1.984375 0 3.234375 1.34375q1.25 1.34375 1.25 3.796875q0 0.140625 -0.015625 0.4375l-7.34375 0q0.09375 1.625 0.921875 2.484375q0.828125 0.859375 2.0625 0.859375q0.90625 0 1.546875 -0.46875q0.65625 -0.484375 1.046875 -1.546875zm-5.484375 -2.703125l5.5 0q-0.109375 -1.234375 -0.625 -1.859375q-0.796875 -0.96875 -2.078125 -0.96875q-1.140625 0 -1.9375 0.78125q-0.78125 0.765625 -0.859375 2.046875zm9.094482 5.875l0 -9.859375l1.5 0l0 1.5q0.578125 -1.046875 1.0625 -1.375q0.484375 -0.34375 1.078125 -0.34375q0.84375 0 1.71875 0.546875l-0.578125 1.546875q-0.609375 -0.359375 -1.234375 -0.359375q-0.546875 0 -0.984375 0.328125q-0.421875 0.328125 -0.609375 0.90625q-0.28125 0.890625 -0.28125 1.953125l0 5.15625l-1.671875 0z" fill-rule="nonzero"></path><path fill="#000000" fill-opacity="0.0" d="m395.795 156.71114c16.393707 0 32.787415 38.0 32.787415 76.0" fill-rule="nonzero"></path><path stroke="#000000" stroke-width="1.0" stroke-linejoin="round" stroke-linecap="butt" d="m395.79504 156.71114c8.196838 0 16.393677 9.5 22.54132 23.749985c3.073822 7.125 5.6353455 15.4375 7.428406 24.34375c0.8965149 4.453125 1.6009521 9.0546875 2.0812378 13.730484c0.2401123 2.3378754 0.42425537 4.6943207 0.5483093 7.0600433c0.01550293 0.29571533 0.030090332 0.591568 0.043701172 0.887558l0.009857178 0.22969055" fill-rule="evenodd"></path><path fill="#000000" stroke="#000000" stroke-width="1.0" stroke-linecap="butt" d="m426.79654 226.74968l1.7531128 4.4999084l1.54953 -4.574005z" fill-rule="evenodd"></path><path fill="#cfe2f3" d="m193.49606 341.85413l0 0c0 -3.6674805 2.9730835 -6.640564 6.6405487 -6.640564l99.72676 0c1.7612 0 3.4502563 0.6996155 4.695587 1.9449768c1.2453613 1.2453308 1.9449768 2.9343872 1.9449768 4.695587l0 26.561401c0 3.6674805 -2.9730835 6.640564 -6.640564 6.640564l-99.72676 0c-3.6674652 0 -6.6405487 -2.9730835 -6.6405487 -6.640564z" fill-rule="nonzero"></path><path stroke="#000000" stroke-width="1.0" stroke-linejoin="round" stroke-linecap="butt" d="m193.49606 341.85413l0 0c0 -3.6674805 2.9730835 -6.640564 6.6405487 -6.640564l99.72676 0c1.7612 0 3.4502563 0.6996155 4.695587 1.9449768c1.2453613 1.2453308 1.9449768 2.9343872 1.9449768 4.695587l0 26.561401c0 3.6674805 -2.9730835 6.640564 -6.640564 6.640564l-99.72676 0c-3.6674652 0 -6.6405487 -2.9730835 -6.6405487 -6.640564z" fill-rule="nonzero"></path><path fill="#000000" d="m225.99986 362.0548l0 -13.59375l2.71875 0l3.21875 9.625q0.4375 1.34375 0.640625 2.015625q0.234375 -0.75 0.734375 -2.1875l3.25 -9.453125l2.421875 0l0 13.59375l-1.734375 0l0 -11.390625l-3.953125 11.390625l-1.625 0l-3.9375 -11.578125l0 11.578125l-1.734375 0zm14.759552 -4.921875q0 -2.734375 1.53125 -4.0625q1.265625 -1.09375 3.09375 -1.09375q2.03125 0 3.3125 1.34375q1.296875 1.328125 1.296875 3.671875q0 1.90625 -0.578125 3.0q-0.5625 1.078125 -1.65625 1.6875q-1.078125 0.59375 -2.375 0.59375q-2.0625 0 -3.34375 -1.328125q-1.28125 -1.328125 -1.28125 -3.8125zm1.71875 0q0 1.890625 0.828125 2.828125q0.828125 0.9375 2.078125 0.9375q1.25 0 2.0625 -0.9375q0.828125 -0.953125 0.828125 -2.890625q0 -1.828125 -0.828125 -2.765625q-0.828125 -0.9375 -2.0625 -0.9375q-1.25 0 -2.078125 0.9375q-0.828125 0.9375 -0.828125 2.828125zm15.672592 4.921875l0 -1.25q-0.9375 1.46875 -2.75 1.46875q-1.171875 0 -2.171875 -0.640625q-0.984375 -0.65625 -1.53125 -1.8125q-0.53125 -1.171875 -0.53125 -2.6875q0 -1.46875 0.484375 -2.671875q0.5 -1.203125 1.46875 -1.84375q0.984375 -0.640625 2.203125 -0.640625q0.890625 0 1.578125 0.375q0.703125 0.375 1.140625 0.984375l0 -4.875l1.65625 0l0 13.59375l-1.546875 0zm-5.28125 -4.921875q0 1.890625 0.796875 2.828125q0.8125 0.9375 1.890625 0.9375q1.09375 0 1.859375 -0.890625q0.765625 -0.890625 0.765625 -2.734375q0 -2.015625 -0.78125 -2.953125q-0.78125 -0.953125 -1.921875 -0.953125q-1.109375 0 -1.859375 0.90625q-0.75 0.90625 -0.75 2.859375zm16.016357 1.75l1.71875 0.21875q-0.40625 1.5 -1.515625 2.34375q-1.09375 0.828125 -2.8125 0.828125q-2.15625 0 -3.421875 -1.328125q-1.265625 -1.328125 -1.265625 -3.734375q0 -2.484375 1.265625 -3.859375q1.28125 -1.375 3.328125 -1.375q1.984375 0 3.234375 1.34375q1.25 1.34375 1.25 3.796875q0 0.140625 -0.015625 0.4375l-7.34375 0q0.09375 1.625 0.921875 2.484375q0.828125 0.859375 2.0625 0.859375q0.90625 0 1.546875 -0.46875q0.65625 -0.484375 1.046875 -1.546875zm-5.484375 -2.703125l5.5 0q-0.109375 -1.234375 -0.625 -1.859375q-0.796875 -0.96875 -2.078125 -0.96875q-1.140625 0 -1.9375 0.78125q-0.78125 0.765625 -0.859375 2.046875zm9.078827 5.875l0 -13.59375l1.671875 0l0 13.59375l-1.671875 0z" fill-rule="nonzero"></path><path fill="#cfe2f3" d="m384.56372 334.12833l0 0c0 3.868164 19.706512 7.003937 44.015747 7.003937c24.309235 0 44.015747 -3.1357727 44.015747 -7.003937l0 42.02362c0 3.868164 -19.706512 7.003937 -44.015747 7.003937c-24.309235 0 -44.015747 -3.1357727 -44.015747 -7.003937z" fill-rule="nonzero"></path><path fill="#e2edf7" d="m384.56372 334.12833l0 0c0 -3.868164 19.706512 -7.003937 44.015747 -7.003937c24.309235 0 44.015747 3.1357727 44.015747 7.003937l0 0c0 3.868164 -19.706512 7.003937 -44.015747 7.003937c-24.309235 0 -44.015747 -3.1357727 -44.015747 -7.003937z" fill-rule="nonzero"></path><path fill="#000000" fill-opacity="0.0" d="m472.5952 334.12833l0 0c0 3.868164 -19.706512 7.003937 -44.015747 7.003937c-24.309235 0 -44.015747 -3.1357727 -44.015747 -7.003937l0 0c0 -3.868164 19.706512 -7.003937 44.015747 -7.003937c24.309235 0 44.015747 3.1357727 44.015747 7.003937l0 42.02362c0 3.868164 -19.706512 7.003937 -44.015747 7.003937c-24.309235 0 -44.015747 -3.1357727 -44.015747 -7.003937l0 -42.02362" fill-rule="nonzero"></path><path stroke="#000000" stroke-width="1.0" stroke-linejoin="round" stroke-linecap="butt" d="m472.5952 334.12833l0 0c0 3.868164 -19.706512 7.003937 -44.015747 7.003937c-24.309235 0 -44.015747 -3.1357727 -44.015747 -7.003937l0 0c0 -3.868164 19.706512 -7.003937 44.015747 -7.003937c24.309235 0 44.015747 3.1357727 44.015747 7.003937l0 42.02362c0 3.868164 -19.706512 7.003937 -44.015747 7.003937c-24.309235 0 -44.015747 -3.1357727 -44.015747 -7.003937l0 -42.02362" fill-rule="nonzero"></path><path fill="#000000" d="m417.08997 365.5621l0 -13.59375l4.6875 0q1.578125 0 2.421875 0.1875q1.15625 0.265625 1.984375 0.96875q1.078125 0.921875 1.609375 2.34375q0.53125 1.40625 0.53125 3.21875q0 1.546875 -0.359375 2.75q-0.359375 1.1875 -0.921875 1.984375q-0.5625 0.78125 -1.234375 1.234375q-0.671875 0.4375 -1.625 0.671875q-0.953125 0.234375 -2.1875 0.234375l-4.90625 0zm1.796875 -1.609375l2.90625 0q1.34375 0 2.109375 -0.25q0.765625 -0.25 1.21875 -0.703125q0.640625 -0.640625 1.0 -1.71875q0.359375 -1.078125 0.359375 -2.625q0 -2.125 -0.703125 -3.265625q-0.703125 -1.15625 -1.703125 -1.546875q-0.71875 -0.28125 -2.328125 -0.28125l-2.859375 0l0 10.390625zm11.597931 1.609375l0 -13.59375l5.109375 0q1.546875 0 2.484375 0.40625q0.953125 0.40625 1.484375 1.265625q0.53125 0.859375 0.53125 1.796875q0 0.875 -0.46875 1.65625q-0.46875 0.765625 -1.4375 1.234375q1.234375 0.359375 1.890625 1.234375q0.671875 0.875 0.671875 2.0625q0 0.953125 -0.40625 1.78125q-0.390625 0.8125 -0.984375 1.265625q-0.59375 0.4375 -1.5 0.671875q-0.890625 0.21875 -2.1875 0.21875l-5.1875 0zm1.796875 -7.890625l2.9375 0q1.203125 0 1.71875 -0.15625q0.6875 -0.203125 1.03125 -0.671875q0.359375 -0.46875 0.359375 -1.1875q0 -0.671875 -0.328125 -1.1875q-0.328125 -0.515625 -0.9375 -0.703125q-0.59375 -0.203125 -2.0625 -0.203125l-2.71875 0l0 4.109375zm0 6.28125l3.390625 0q0.875 0 1.21875 -0.0625q0.625 -0.109375 1.046875 -0.359375q0.421875 -0.265625 0.6875 -0.765625q0.265625 -0.5 0.265625 -1.140625q0 -0.765625 -0.390625 -1.328125q-0.390625 -0.5625 -1.078125 -0.78125q-0.6875 -0.234375 -1.984375 -0.234375l-3.15625 0l0 4.671875z" fill-rule="nonzero"></path><path fill="#000000" d="m308.3916 76.173256c0.15356445 -11.200729 14.026154 -20.213135 31.035858 -20.162579c17.009674 0.050559998 30.758179 9.1450615 30.758179 20.346249l-30.897644 0z" fill-rule="nonzero"></path><path stroke="#000000" stroke-width="1.0" stroke-linejoin="round" stroke-linecap="butt" d="m308.3916 76.173256c0.15356445 -11.200729 14.026154 -20.213135 31.035858 -20.162579c17.009674 0.050559998 30.758179 9.1450615 30.758179 20.346249l-30.897644 0z" fill-rule="nonzero"></path><path fill="#000000" d="m321.1503 34.54489l0 0c0 -9.775873 8.122345 -17.700787 18.141724 -17.700787l0 0c4.811493 0 9.425934 1.8648987 12.8281555 5.1844406c3.4022217 3.319542 5.3135986 7.821806 5.3135986 12.516346l0 0c0 9.775875 -8.122345 17.700787 -18.141754 17.700787l0 0c-10.019379 0 -18.141724 -7.9249115 -18.141724 -17.700787z" fill-rule="nonzero"></path><path stroke="#000000" stroke-width="1.0" stroke-linejoin="round" stroke-linecap="butt" d="m321.1503 34.54489l0 0c0 -9.775873 8.122345 -17.700787 18.141724 -17.700787l0 0c4.811493 0 9.425934 1.8648987 12.8281555 5.1844406c3.4022217 3.319542 5.3135986 7.821806 5.3135986 12.516346l0 0c0 9.775875 -8.122345 17.700787 -18.141754 17.700787l0 0c-10.019379 0 -18.141724 -7.9249115 -18.141724 -17.700787z" fill-rule="nonzero"></path><path fill="#000000" fill-opacity="0.0" d="m250.0 232.70493c0 -38.0 16.393707 -76.0 32.787415 -76.0" fill-rule="nonzero"></path><path stroke="#000000" stroke-width="1.0" stroke-linejoin="round" stroke-linecap="butt" d="m250.0 232.70493c0 -19.0 4.098419 -38.0 10.246063 -52.25c3.073822 -7.125 6.6599426 -13.0625 10.502228 -17.21875c1.9211121 -2.078125 3.906311 -3.7109375 5.9234924 -4.8242188l0.31607056 -0.16915894" fill-rule="evenodd"></path><path fill="#000000" stroke="#000000" stroke-width="1.0" stroke-linecap="butt" d="m277.4112 159.83934l3.9631348 -2.7597198l-4.809845 -0.43338013z" fill-rule="evenodd"></path><path fill="#000000" fill-opacity="0.0" d="m137.47017 245.26015l46.49637 0" fill-rule="nonzero"></path><path stroke="#000000" stroke-width="1.0" stroke-linejoin="round" stroke-linecap="butt" d="m137.47017 245.26015l40.49637 0" fill-rule="evenodd"></path><path fill="#000000" stroke="#000000" stroke-width="1.0" stroke-linecap="butt" d="m177.96654 246.91188l4.538101 -1.6517334l-4.538101 -1.6517334z" fill-rule="evenodd"></path><path fill="#000000" fill-opacity="0.0" d="m137.47017 259.98816l46.49637 0" fill-rule="nonzero"></path><path stroke="#000000" stroke-width="1.0" stroke-linejoin="round" stroke-linecap="butt" d="m143.47017 259.98816l40.49637 0" fill-rule="evenodd"></path><path fill="#000000" stroke="#000000" stroke-width="1.0" stroke-linecap="butt" d="m143.47017 258.33643l-4.538086 1.6517334l4.538086 1.6517334z" fill-rule="evenodd"></path><path fill="#000000" fill-opacity="0.0" d="m316.07672 347.7688l58.126617 0" fill-rule="nonzero"></path><path stroke="#000000" stroke-width="1.0" stroke-linejoin="round" stroke-linecap="butt" d="m316.07672 347.76877l52.126617 0" fill-rule="evenodd"></path><path fill="#000000" stroke="#000000" stroke-width="1.0" stroke-linecap="butt" d="m368.20334 349.4205l4.538086 -1.6517334l-4.538086 -1.6517029z" fill-rule="evenodd"></path><path fill="#000000" fill-opacity="0.0" d="m316.07672 362.4968l58.126617 0" fill-rule="nonzero"></path><path stroke="#000000" stroke-width="1.0" stroke-linejoin="round" stroke-linecap="butt" d="m322.07672 362.4968l52.126617 0" fill-rule="evenodd"></path><path fill="#000000" stroke="#000000" stroke-width="1.0" stroke-linecap="butt" d="m322.07672 360.84506l-4.5381165 1.6517334l4.5381165 1.6517334z" fill-rule="evenodd"></path><path fill="#000000" fill-opacity="0.0" d="m257.5252 281.20834l0 45.34369" fill-rule="nonzero"></path><path stroke="#000000" stroke-width="1.0" stroke-linejoin="round" stroke-linecap="butt" d="m257.5252 281.20834l0 39.34369" fill-rule="evenodd"></path><path fill="#000000" stroke="#000000" stroke-width="1.0" stroke-linecap="butt" d="m255.87349 320.55203l1.6517181 4.5381165l1.6517334 -4.5381165z" fill-rule="evenodd"></path><path fill="#000000" fill-opacity="0.0" d="m242.42282 281.20834l0 45.34369" fill-rule="nonzero"></path><path stroke="#000000" stroke-width="1.0" stroke-linejoin="round" stroke-linecap="butt" d="m242.42282 287.20834l0 39.34369" fill-rule="evenodd"></path><path fill="#000000" stroke="#000000" stroke-width="1.0" stroke-linecap="butt" d="m244.07455 287.20834l-1.6517334 -4.538086l-1.6517334 4.538086z" fill-rule="evenodd"></path><path fill="#000000" fill-opacity="0.0" d="m316.0372 252.6379l46.48819 0" fill-rule="nonzero"></path><path stroke="#000000" stroke-width="1.0" stroke-linejoin="round" stroke-linecap="butt" d="m322.0372 252.6379l40.48819 0" fill-rule="evenodd"></path><path fill="#000000" stroke="#000000" stroke-width="1.0" stroke-linecap="butt" d="m322.0372 250.98616l-4.5381165 1.6517334l4.5381165 1.6517334z" fill-rule="evenodd"></path><path fill="#000000" fill-opacity="0.0" d="m346.8163 84.23761l0 45.34369" fill-rule="nonzero"></path><path stroke="#000000" stroke-width="1.0" stroke-linejoin="round" stroke-linecap="butt" d="m346.8163 84.23761l0 39.34368" fill-rule="evenodd"></path><path fill="#000000" stroke="#000000" stroke-width="1.0" stroke-linecap="butt" d="m345.16458 123.58129l1.6517334 4.5380936l1.6517334 -4.5380936z" fill-rule="evenodd"></path><path fill="#000000" fill-opacity="0.0" d="m331.7139 84.23761l0 45.34369" fill-rule="nonzero"></path><path stroke="#000000" stroke-width="1.0" stroke-linejoin="round" stroke-linecap="butt" d="m331.7139 90.2376l0 39.343697" fill-rule="evenodd"></path><path fill="#000000" stroke="#000000" stroke-width="1.0" stroke-linecap="butt" d="m333.36563 90.23761l-1.6517334 -4.538101l-1.6517334 4.538101z" fill-rule="evenodd"></path></g></svg>

